<svg xmlns="http://www.w3.org/2000/svg" viewBox="0 0 200 530.45"><defs><style>.a{fill:#fcd900;}</style></defs><title>Asset 1</title><circle class="a" cx="100.44" cy="294.94" r="73.97"/><path d="M200,270.45v260H0v-260Zm-10,250v-240H10v240Z"/><path d="M106.33,212.64h-.48c-13,0-21.9-9.12-21.9-21.3,0-10.32,5-18,15.6-19v10c-5.16.72-7.92,3.6-7.92,9,0,6.78,5.28,11.1,14.16,11.1h.48c8.88,0,14-4.08,14-11.16,0-5.34-2.7-9.06-8.22-9.84v-9.54c10.62,1.08,16.08,8.7,16.08,19.26C128.17,205.14,119.53,212.64,106.33,212.64Z"/><path d="M116.35,166.56H96.13v-8.64h19c4.26,0,6.3-1.74,6.3-5.46s-2.28-6.54-6.9-6.54H96.13v-8.64h31.38v8.64h-4.92c3.18,1.62,5.58,4.8,5.58,10C128.17,162,124.57,166.56,116.35,166.56Z"/><path d="M81.91,129.36v-8.64h45.6v8.64Z"/><path d="M118.21,111.48h-15.9v4H96.13v-4H89.35v-8.64h6.78v-6.6h6.18v6.6h15.12c2.52,0,3.72-1.26,3.72-3.48a8.09,8.09,0,0,0-.6-3.3h6.72a15.81,15.81,0,0,1,.84,5.28C128.11,107.94,124.75,111.48,118.21,111.48Z"/><path d="M116.35,90.42H96.13V81.78h19c4.26,0,6.3-1.74,6.3-5.46s-2.28-6.54-6.9-6.54H96.13V61.14h31.38v8.64h-4.92c3.18,1.62,5.58,4.8,5.58,10C128.17,85.86,124.57,90.42,116.35,90.42Z"/><path d="M96.13,53.46v-8.7h6c-4.2-2-6.42-5-6.48-10.14h8.1c-.06,6.42,2,10.14,8,10.14h15.72v8.7Z"/><path d="M112.21,31.44h-.48c-9.9,0-16.32-7-16.32-16.14,0-8.1,4.74-15.3,16-15.3h2.4V22.62c5.22-.24,8.22-3.06,8.22-7.8,0-4-1.74-6-4.38-6.54V.06c6.78,1,10.56,6.42,10.56,15C128.17,24.54,122.23,31.44,112.21,31.44Zm-3.78-23c-4.74.3-7,2.7-7,6.84,0,3.9,2.58,6.54,7,7.2Z"/><path d="M147,210.42V200.7h35.28V183.24h7.62v27.18Z"/><path d="M181.21,179.64c-7.32,0-10.08-6.72-10.08-16.32v-3.54h-1.26c-3.72,0-5.76,1.14-5.76,5.1,0,3.42,1.74,5,4.44,5.34v8.22c-7.44-.54-10.74-6.42-10.74-14.1s3.12-13.14,11.64-13.14h20.46v8.46h-3.78c2.52,1.8,4.44,4.56,4.44,9.48C190.57,174.84,187.81,179.64,181.21,179.64Zm-2.28-19.86h-2.64v3.36c0,5,1.08,8,4.44,8,2.28,0,3.78-1.38,3.78-4.56C184.51,162.72,182.41,159.78,178.93,159.78Z"/><path d="M184.93,135.06h5v8.7h-45.6v-8.7h19.14a11.66,11.66,0,0,1-5.64-10c0-7.68,5.7-13.68,16.08-13.68h.48c10.38,0,16.2,5.88,16.2,13.68C190.57,129.9,188.17,133.44,184.93,135.06Zm-10.5-14.88h-.48c-6.36,0-9.48,3.12-9.48,7.5,0,4.56,3.18,7.68,9.48,7.68h.48c6.3,0,9.36-3,9.36-7.74S180.55,120.18,174.43,120.18Z"/><path d="M159.79,108.42A13.45,13.45,0,0,1,146.41,94.8a13.32,13.32,0,1,1,13.38,13.62Zm-.06-24.66a10.58,10.58,0,0,0-11,11c0,6.42,4.56,11,11.1,11a11,11,0,0,0-.06-22.08Zm-6.72,16v-5.1c0-3.42,1.38-5.34,4.14-5.34h.06a3.59,3.59,0,0,1,3.54,2.4l5.4-3.18v3.84L161.41,95v1h4.74v3.72Zm6-4.92c0-1.26-.54-1.92-1.62-1.92h-.06c-1.08,0-1.5.72-1.5,1.92V96H159Z"/></svg>